<?xml version="1.0" encoding="UTF-8"?>
<svg version="1.1" xmlns="http://www.w3.org/2000/svg" width="128" height="128">
<path d="M0 0 C42.24 0 84.48 0 128 0 C128 42.24 128 84.48 128 128 C85.76 128 43.52 128 0 128 C0 85.76 0 43.52 0 0 Z " fill="#EFB119" transform="translate(0,0)"/>
<path d="M0 0 C42.24 0 84.48 0 128 0 C128 42.24 128 84.48 128 128 C116.78 128 105.56 128 94 128 C97.54263784 124.45736216 101.08861644 121.57350846 105.07421875 118.5859375 C107.10173293 117.13498287 107.10173293 117.13498287 108 115 C108.04639864 113.1672539 108.03779265 111.33294376 108 109.5 C107.94440388 94.08134237 107.94440388 94.08134237 111.5625 90.375 C112.366875 89.92125 113.17125 89.4675 114 89 C113.7525 88.4225 113.505 87.845 113.25 87.25 C113.1675 86.5075 113.085 85.765 113 85 C113.644496 84.41590363 114.288992 83.83180725 114.95301819 83.23001099 C117.58592929 80.36168033 117.50110073 78.91692885 117.50170898 75.06982422 C117.51578041 73.2780928 117.51578041 73.2780928 117.53013611 71.45016479 C117.51890213 70.16465729 117.50766815 68.87914978 117.49609375 67.5546875 C117.49624876 66.21998008 117.49773802 64.8852722 117.50050354 63.55056763 C117.50188627 60.75795515 117.48934846 57.96585708 117.46655273 55.17333984 C117.43811233 51.59066403 117.44092149 48.00883913 117.45364285 44.42609978 C117.46225879 41.01053921 117.44716292 37.59523366 117.43359375 34.1796875 C117.43652939 32.89013153 117.43946503 31.60057556 117.44248962 30.27194214 C117.42980545 29.08375885 117.41712128 27.89557556 117.40405273 26.67138672 C117.39594826 25.09730545 117.39594826 25.09730545 117.38768005 23.49142456 C117.25974564 22.66925446 117.13181122 21.84708435 117 21 C116.01 20.34 115.02 19.68 114 19 C113.3125 16.375 113.3125 16.375 113 14 C112.34 14 111.68 14 111 14 C111 12.68 111 11.36 111 10 C109.7625 9.855625 108.525 9.71125 107.25 9.5625 C105.15973875 9.31863619 103.19018559 9.05290649 101.16137695 8.48852539 C98.79707402 7.95413364 96.70120733 7.87049137 94.27734375 7.8671875 C93.28814941 7.86485107 92.29895508 7.86251465 91.27978516 7.86010742 C86.21065089 7.88269451 81.14171717 7.91095876 76.07275391 7.95849609 C72.30939504 7.99254549 68.54620754 8.01004003 64.78271484 8.02197266 C59.0567869 8.04205308 53.33158681 8.09074536 47.60598755 8.15460205 C45.28921837 8.17649726 42.97235428 8.18999409 40.65548706 8.19500732 C37.35556261 8.2042815 34.0573742 8.24512423 30.7578125 8.29296875 C29.26401314 8.28708488 29.26401314 8.28708488 27.74003601 8.28108215 C23.23381317 8.3760975 19.98643599 8.51331619 16.37451172 11.38012695 C13.86568467 14.14819431 13.38100452 15.38045704 13 19 C12.34 19.99 11.68 20.98 11 22 C10.61500109 23.65549531 10.27206865 25.3222433 10 27 C10.66 27 11.32 27 12 27 C11.99666908 27.82232872 11.99666908 27.82232872 11.99327087 28.66127014 C11.97107774 34.38802435 11.95603501 40.11476626 11.94506836 45.84155273 C11.94005222 47.97632341 11.93323776 50.11109067 11.92456055 52.24584961 C11.91237565 55.32146042 11.90674438 58.39702563 11.90234375 61.47265625 C11.89718246 62.42084732 11.89202118 63.36903839 11.88670349 64.34596252 C11.8862854 69.33000153 11.98010687 74.11054786 13 79 C13.66 79.66 14.32 80.32 15 81 C15.4140625 83.6015625 15.4140625 83.6015625 15.625 86.625 C15.69976562 87.62789063 15.77453125 88.63078125 15.8515625 89.6640625 C15.92503906 90.82035156 15.92503906 90.82035156 16 92 C17.32 92.33 18.64 92.66 20 93 C20 94.65 20 96.3 20 98 C20.78375 98.144375 21.5675 98.28875 22.375 98.4375 C25 99 25 99 27 100 C27 100.66 27 101.32 27 102 C28.1446875 102.4021875 28.1446875 102.4021875 29.3125 102.8125 C31.99226246 103.99658109 33.01711858 104.93780332 35 107 C36.051875 107.680625 37.10375 108.36125 38.1875 109.0625 C39.5796875 110.0215625 39.5796875 110.0215625 41 111 C41 111.66 41 112.32 41 113 C41.61875 113.144375 42.2375 113.28875 42.875 113.4375 C45 114 45 114 47 115 C47 115.66 47 116.32 47 117 C48.32 117.33 49.64 117.66 51 118 C51 118.66 51 119.32 51 120 C52.65 120.66 54.3 121.32 56 122 C56 122.66 56 123.32 56 124 C58.97 124.99 58.97 124.99 62 126 C62 126.66 62 127.32 62 128 C41.54 128 21.08 128 0 128 C0 85.76 0 43.52 0 0 Z " fill="#F2F2F2" transform="translate(0,0)"/>
<path d="M0 0 C2.42055541 -0.03382908 4.84112713 -0.066526 7.26171875 -0.09765625 C8.81560303 -0.13016479 8.81560303 -0.13016479 10.40087891 -0.16333008 C17.5661735 -0.19388954 23.95647967 1.14802505 30.82421875 3.15234375 C30.82421875 4.47234375 30.82421875 5.79234375 30.82421875 7.15234375 C31.48421875 7.15234375 32.14421875 7.15234375 32.82421875 7.15234375 C36.48854348 12.14915019 37.94127272 15.59562413 38.0012207 21.73779297 C38.02047356 23.45505081 38.02047356 23.45505081 38.04011536 25.20700073 C38.04750229 26.4445108 38.05488922 27.68202087 38.0625 28.95703125 C38.07057175 30.22829865 38.07864349 31.49956604 38.08695984 32.80935669 C38.10079935 35.50103398 38.11181658 38.19258885 38.11938477 40.88427734 C38.13045231 44.3265898 38.16486251 47.76825639 38.20455647 51.2103405 C38.23703139 54.50083989 38.24150161 57.79139603 38.25 61.08203125 C38.26750809 62.31549286 38.28501617 63.54895447 38.30305481 64.8197937 C38.30012924 65.97093658 38.29720367 67.12207947 38.29418945 68.30810547 C38.30005569 69.31831757 38.30592194 70.32852966 38.31196594 71.36935425 C37.69863295 74.86891159 36.05767414 76.44954919 33.82421875 79.15234375 C33.82421875 80.47234375 33.82421875 81.79234375 33.82421875 83.15234375 C32.49472414 84.15744168 31.16121728 85.15724943 29.82421875 86.15234375 C29.12264799 88.20015705 29.12264799 88.20015705 29.07421875 90.52734375 C29.0071875 91.4090625 28.94015625 92.29078125 28.87109375 93.19921875 C28.77564446 96.20771419 28.77564446 96.20771419 29.08984375 99.41796875 C29.68613796 107.96485244 29.68613796 107.96485244 27.03515625 111.6171875 C24.72243188 113.69399852 22.41882845 115.44244042 19.82421875 117.15234375 C18.93798828 117.83901123 18.05175781 118.52567871 17.13867188 119.2331543 C13.16617755 121.53337365 10.79927879 121.61594471 6.23828125 121.54296875 C5.5364975 121.53730896 4.83471375 121.53164917 4.11166382 121.52581787 C1.89012788 121.50358858 -0.32974048 121.45342431 -2.55078125 121.40234375 C-4.06508072 121.38226106 -5.57940571 121.36401339 -7.09375 121.34765625 C-10.78829393 121.30377008 -14.48187458 121.23483952 -18.17578125 121.15234375 C-18.17578125 120.49234375 -18.17578125 119.83234375 -18.17578125 119.15234375 C-18.79453125 119.00796875 -19.41328125 118.86359375 -20.05078125 118.71484375 C-22.17578125 118.15234375 -22.17578125 118.15234375 -24.17578125 117.15234375 C-24.17578125 116.49234375 -24.17578125 115.83234375 -24.17578125 115.15234375 C-25.82578125 114.49234375 -27.47578125 113.83234375 -29.17578125 113.15234375 C-29.17578125 112.49234375 -29.17578125 111.83234375 -29.17578125 111.15234375 C-30.49578125 110.82234375 -31.81578125 110.49234375 -33.17578125 110.15234375 C-33.17578125 109.49234375 -33.17578125 108.83234375 -33.17578125 108.15234375 C-34.53703125 107.78109375 -34.53703125 107.78109375 -35.92578125 107.40234375 C-39.36321382 106.0802543 -40.69813117 104.78984222 -43.17578125 102.15234375 C-44.08328125 101.61609375 -44.99078125 101.07984375 -45.92578125 100.52734375 C-46.66828125 100.07359375 -47.41078125 99.61984375 -48.17578125 99.15234375 C-48.17578125 98.49234375 -48.17578125 97.83234375 -48.17578125 97.15234375 C-49.82578125 96.49234375 -51.47578125 95.83234375 -53.17578125 95.15234375 C-53.17578125 94.49234375 -53.17578125 93.83234375 -53.17578125 93.15234375 C-55.48578125 92.49234375 -57.79578125 91.83234375 -60.17578125 91.15234375 C-60.17578125 89.50234375 -60.17578125 87.85234375 -60.17578125 86.15234375 C-61.49578125 85.82234375 -62.81578125 85.49234375 -64.17578125 85.15234375 C-64.29695313 84.36988281 -64.418125 83.58742188 -64.54296875 82.78125 C-64.71054688 81.76933594 -64.878125 80.75742188 -65.05078125 79.71484375 C-65.29441406 78.20083984 -65.29441406 78.20083984 -65.54296875 76.65625 C-65.75179687 75.82996094 -65.960625 75.00367187 -66.17578125 74.15234375 C-66.83578125 73.82234375 -67.49578125 73.49234375 -68.17578125 73.15234375 C-69.23469689 66.61371337 -69.24962082 60.25311541 -69.0546875 53.6484375 C-69.03107651 52.68454605 -69.00746552 51.7206546 -68.98313904 50.72755432 C-68.90722545 47.68147324 -68.82289491 44.6356943 -68.73828125 41.58984375 C-68.68498797 39.51108196 -68.63224822 37.4323059 -68.58007812 35.35351562 C-68.45170954 30.28627094 -68.31579746 25.21927943 -68.17578125 20.15234375 C-68.83578125 20.15234375 -69.49578125 20.15234375 -70.17578125 20.15234375 C-69.42578125 13.40234375 -69.42578125 13.40234375 -67.17578125 11.15234375 C-67.09328125 10.38921875 -67.01078125 9.62609375 -66.92578125 8.83984375 C-66.04988073 5.70120022 -64.68095693 4.22586971 -62.14752197 2.21768188 C-58.17983042 0.07392481 -53.82810408 0.42798549 -49.41796875 0.4453125 C-48.36925095 0.43000992 -47.32053314 0.41470734 -46.24003601 0.39894104 C-42.84338029 0.3553084 -39.44769348 0.34665185 -36.05078125 0.33984375 C-33.72255774 0.31923514 -31.39434992 0.2967707 -29.06616211 0.27246094 C-24.49671242 0.22882043 -19.92753673 0.19951181 -15.35791016 0.18310547 C-10.2373703 0.16311821 -5.11959266 0.095182 0 0 Z M-61.17578125 6.15234375 C-61.17578125 8.13234375 -61.17578125 10.11234375 -61.17578125 12.15234375 C-61.50578125 12.15234375 -61.83578125 12.15234375 -62.17578125 12.15234375 C-62.22209184 21.22738099 -62.25764392 30.30237765 -62.27940559 39.37750721 C-62.28984933 43.5913135 -62.30401924 47.80503902 -62.32666016 52.01879883 C-62.34836758 56.08419782 -62.36034544 60.14951907 -62.36553574 64.21497154 C-62.36923528 65.76713981 -62.37645944 67.31930375 -62.38724136 68.87143898 C-62.40172851 71.04304881 -62.40376038 73.21433606 -62.40283203 75.38598633 C-62.40727325 76.62286697 -62.41171448 77.85974762 -62.41629028 79.1341095 C-62.40796798 82.3314896 -62.40796798 82.3314896 -60.17578125 85.15234375 C-59.51578125 85.15234375 -58.85578125 85.15234375 -58.17578125 85.15234375 C-57.84578125 86.14234375 -57.51578125 87.13234375 -57.17578125 88.15234375 C-54.57550586 90.44379082 -54.57550586 90.44379082 -51.42578125 92.71484375 C-50.3790625 93.49988281 -49.33234375 94.28492187 -48.25390625 95.09375 C-45.54669416 96.90428398 -43.19922956 98.02292339 -40.17578125 99.15234375 C-38.79407826 99.96121018 -37.43951084 100.81791391 -36.11328125 101.71484375 C-35.33855469 102.23433594 -34.56382813 102.75382812 -33.765625 103.2890625 C-31.87857975 104.64671044 -30.04310058 106.07688869 -28.2421875 107.546875 C-26.72431641 108.77470703 -26.72431641 108.77470703 -25.17578125 110.02734375 C-24.24765625 110.80851562 -23.31953125 111.5896875 -22.36328125 112.39453125 C-18.14129413 114.72283297 -14.89313343 115.19193291 -10.17578125 114.15234375 C-7.28646477 112.61813612 -5.01635313 110.60531452 -2.61328125 108.40234375 C-1.23169456 107.20670812 0.15249788 106.01407795 1.5390625 104.82421875 C2.24144043 104.21384766 2.94381836 103.60347656 3.66748047 102.97460938 C7.14154752 100.03930979 10.78735569 97.34709171 14.44921875 94.65234375 C21.30906246 89.61721612 21.30906246 89.61721612 27.82421875 84.15234375 C27.82421875 83.49234375 27.82421875 82.83234375 27.82421875 82.15234375 C28.48421875 82.15234375 29.14421875 82.15234375 29.82421875 82.15234375 C30.5839406 78.09296901 30.95409329 74.24977375 30.96948242 70.12207031 C30.97586227 68.9535553 30.98224213 67.78504028 30.98881531 66.58111572 C30.98992813 65.33102722 30.99104095 64.08093872 30.9921875 62.79296875 C30.9955159 61.49341248 30.9988443 60.1938562 31.00227356 58.85491943 C31.0082446 56.10802378 31.01011563 53.36115949 31.00952148 50.61425781 C31.00942016 47.12004435 31.02305103 43.62603542 31.04029369 40.13187027 C31.05418938 36.76890064 31.05350519 33.40596663 31.0546875 30.04296875 C31.06546577 28.17998138 31.06546577 28.17998138 31.07646179 26.27935791 C31.07184685 24.50767242 31.07184685 24.50767242 31.06713867 22.70019531 C31.06856369 21.6746051 31.06998871 20.64901489 31.07145691 19.59234619 C30.74584247 15.06183822 29.7150163 10.60633151 28.82421875 6.15234375 C14.30421875 6.15234375 -0.21578125 6.15234375 -15.17578125 6.15234375 C-15.17578125 7.14234375 -15.17578125 8.13234375 -15.17578125 9.15234375 C-15.83578125 9.15234375 -16.49578125 9.15234375 -17.17578125 9.15234375 C-17.17578125 8.16234375 -17.17578125 7.17234375 -17.17578125 6.15234375 C-31.69578125 6.15234375 -46.21578125 6.15234375 -61.17578125 6.15234375 Z " fill="#BABABB" transform="translate(80.17578125,6.84765625)"/>
<path d="M0 0 C0 0.66 0 1.32 0 2 C1.09699219 1.98839844 2.19398437 1.97679687 3.32421875 1.96484375 C4.77864412 1.95546036 6.23307135 1.94636075 7.6875 1.9375 C8.40873047 1.92912109 9.12996094 1.92074219 9.87304688 1.91210938 C13.71555382 1.89456368 17.26639526 2.06475779 21 3 C21.36622936 7.44707075 21.62323303 11.88954451 21.8359375 16.34570312 C22.01452674 19.23502193 22.30735028 22.10385474 22.59375 24.984375 C23.7650887 40.2440168 23.7650887 40.2440168 20.60400391 45.1796875 C17.15943527 48.83971964 13.17055281 51.47526818 8.81103516 53.93164062 C6.74643187 55.09155869 6.74643187 55.09155869 4.13671875 57.296875 C2 59 2 59 0 59 C0.33 66.92 0.66 74.84 1 83 C0.34 83 -0.32 83 -1 83 C-1 75.74 -1 68.48 -1 61 C-1.66 61 -2.32 61 -3 61 C-3 68.26 -3 75.52 -3 83 C-3.66 82.67 -4.32 82.34 -5 82 C-4.67 74.41 -4.34 66.82 -4 59 C-5.32 58.34 -6.64 57.68 -8 57 C-9.20221964 56.12872287 -10.37919493 55.22175916 -11.53125 54.28515625 C-12.17707031 53.76373047 -12.82289062 53.24230469 -13.48828125 52.70507812 C-14.15214844 52.16302734 -14.81601562 51.62097656 -15.5 51.0625 C-16.82250243 49.99037424 -18.14540746 48.91874487 -19.46875 47.84765625 C-20.05076172 47.37336182 -20.63277344 46.89906738 -21.23242188 46.41040039 C-22.98850568 44.91722177 -22.98850568 44.91722177 -25.1940918 43.85327148 C-27.60697605 41.37710488 -27.46576813 39.29738654 -27.47883606 35.94335938 C-27.46132797 35.13705078 -27.44381989 34.33074219 -27.42578125 33.5 C-27.42249313 32.66791016 -27.41920502 31.83582031 -27.41581726 30.97851562 C-27.40539735 29.2199725 -27.38544883 27.46146381 -27.35668945 25.703125 C-27.31266715 23.01022468 -27.29526156 20.31821539 -27.28320312 17.625 C-27.26977657 15.9166538 -27.25485292 14.20831858 -27.23828125 12.5 C-27.23089432 11.69369141 -27.22350739 10.88738281 -27.21589661 10.05664062 C-27.16015143 6.79547102 -27.03807815 4.11423446 -26 1 C-22.41673516 0.83183879 -18.83337798 0.66573123 -15.25 0.5 C-14.23421875 0.45230469 -13.2184375 0.40460937 -12.171875 0.35546875 C-11.1921875 0.31035156 -10.2125 0.26523437 -9.203125 0.21875 C-8.30239258 0.17685547 -7.40166016 0.13496094 -6.47363281 0.09179688 C-4.31702276 0.01176476 -2.15809454 0 0 0 Z " fill="#E1E1E1" transform="translate(66,34)"/>
<path d="M0 0 C14.52 0 29.04 0 44 0 C44.60163214 17.23787495 44.60163214 17.23787495 44.73242188 24.65234375 C44.8217235 29.69075852 44.92667826 34.72504221 45.1315918 39.76025391 C46.29950992 69.21773186 46.29950992 69.21773186 40.82714844 75.76318359 C37.81626344 78.48552712 34.60728053 80.36958007 30.92552185 82.04559326 C27.7174732 83.63569895 25.14543746 85.8676895 22.375 88.125 C20.79706889 89.32946786 19.21913756 90.53393546 17.64111328 91.73828125 C15.87555665 93.09567439 14.12259196 94.46827176 12.37109375 95.84375 C11.77570801 96.30894043 11.18032227 96.77413086 10.56689453 97.25341797 C9.42040471 98.14974135 8.27671634 99.04966279 7.13623047 99.95361328 C3.22471416 103 3.22471416 103 1 103 C-1.69631799 83.95984679 -1.69631799 83.95984679 2.55566406 77.71533203 C6.42434366 73.88951078 10.89256534 71.01325382 15.64477539 68.39599609 C16.42199951 67.93531738 17.19922363 67.47463867 18 67 C18.89174171 66.55890648 18.89174171 66.55890648 19.80149841 66.10890198 C22.80892575 64.39358964 24.66898231 63.15646687 25.64732361 59.73846436 C25.90802856 56.88173824 25.94314057 54.09882661 25.90234375 51.23046875 C25.92078087 49.67625969 25.92078087 49.67625969 25.93959045 48.09065247 C25.97132434 44.78888142 25.95504126 41.48934095 25.9375 38.1875 C25.95060852 35.94594278 25.96684811 33.70440153 25.98632812 31.46289062 C26.03306884 25.97390479 26.01485652 20.49054491 26 15 C17.42 15 8.84 15 0 15 C0 10.05 0 5.1 0 0 Z " fill="#ECAF13" transform="translate(65,13)"/>
<path d="M0 0 C0.33 0 0.66 0 1 0 C1.86111089 3.7220515 2.12646529 7.16329466 2.12939453 10.98022461 C2.13254669 12.16172592 2.13569885 13.34322723 2.13894653 14.56053162 C2.13591019 16.46222862 2.13591019 16.46222862 2.1328125 18.40234375 C2.13376923 19.71280167 2.13472595 21.02325958 2.13571167 22.37342834 C2.13718298 25.14308861 2.13505266 27.91271655 2.13037109 30.68237305 C2.12467973 34.22067057 2.12795264 37.75889213 2.13394356 41.29718685 C2.13844072 44.68641179 2.13528507 48.07561666 2.1328125 51.46484375 C2.13483673 52.73061752 2.13686096 53.9963913 2.13894653 55.30052185 C2.13421829 57.07750206 2.13421829 57.07750206 2.12939453 58.89038086 C2.12859894 59.92786972 2.12780334 60.96535858 2.12698364 62.0342865 C1.99597801 65.09393393 1.56502879 67.99270009 1 71 C0.34 71 -0.32 71 -1 71 C-1.21140625 71.56589844 -1.4228125 72.13179688 -1.640625 72.71484375 C-3.4941121 75.83061948 -5.83916807 77.40777441 -8.75 79.5625 C-9.92771999 80.44446298 -11.10478043 81.32730724 -12.28125 82.2109375 C-12.89226562 82.66694336 -13.50328125 83.12294922 -14.1328125 83.59277344 C-17.20871463 85.91096119 -20.22656027 88.30159465 -23.25 90.6875 C-23.83966553 91.14688965 -24.42933105 91.6062793 -25.03686523 92.07958984 C-27.60523324 94.08341406 -30.11568055 96.10141857 -32.56640625 98.25 C-35.90714254 101.13174818 -38.7889365 103.46554033 -43.25 104.0625 C-49.71915126 103.55356327 -54.69596909 98.25866871 -59.46484375 94.25683594 C-61.56021301 92.54135233 -63.7510945 91.00676669 -66 89.5 C-66.99 88.83484375 -66.99 88.83484375 -68 88.15625 C-70.00163029 86.92447151 -70.00163029 86.92447151 -72.35546875 86.125 C-75.69837722 84.702906 -78.44103168 82.68413022 -81.3125 80.5 C-82.13717773 79.89478516 -82.13717773 79.89478516 -82.97851562 79.27734375 C-84.36007451 78.23731309 -85.68556298 77.12366546 -87 76 C-87 75.34 -87 74.68 -87 74 C-87.99 73.67 -88.98 73.34 -90 73 C-91.44957456 70.10085089 -91.11932924 67.585717 -91.11352539 64.34716797 C-91.11367142 63.66412598 -91.11381744 62.98108398 -91.1139679 62.27734375 C-91.11327023 60.0155929 -91.10548465 57.753924 -91.09765625 55.4921875 C-91.09579155 53.92562912 -91.09436789 52.35907016 -91.09336853 50.79251099 C-91.08954743 46.66610102 -91.0797206 42.53972616 -91.06866455 38.41333008 C-91.0584417 34.20394363 -91.05386903 29.99455153 -91.04882812 25.78515625 C-91.03809798 17.52342138 -91.02102642 9.26171505 -91 1 C-90.67 1 -90.34 1 -90 1 C-90.02522232 1.785457 -90.05044464 2.570914 -90.07643127 3.38017273 C-90.30046625 10.83789482 -90.44043319 18.29052462 -90.48965549 25.7512846 C-90.51782647 29.58630176 -90.57670912 33.41536385 -90.7097168 37.24829102 C-92.08515211 55.16984945 -92.08515211 55.16984945 -85.38574219 70.76098633 C-81.93437786 73.67789441 -78.24675634 75.8175699 -74.20414734 77.80860901 C-70.46893345 79.82757575 -67.35011921 82.57611541 -64.125 85.3125 C-58.22533466 90.09136612 -52.18570028 94.59374774 -46 99 C-46 91.74 -46 84.48 -46 77 C-45.34 77 -44.68 77 -44 77 C-44 84.26 -44 91.52 -44 99 C-36.29159635 93.27097278 -36.29159635 93.27097278 -28.68359375 87.41015625 C-27.90076775 86.79666321 -27.90076775 86.79666321 -27.10212708 86.17077637 C-25.95555356 85.26051715 -24.81879012 84.33767691 -23.69514465 83.39926147 C-20.47272943 80.75066527 -17.37877283 78.60929598 -13.62207031 76.78344727 C-8.41623039 74.01300728 -4.13736297 71.09667753 -1 66 C1.79638297 55.86522137 0.98647883 44.92404616 0.63085938 34.51226807 C0.51633443 30.61749975 0.49991846 26.72236049 0.47460938 22.82617188 C0.41101313 15.21383105 0.24050244 7.60902849 0 0 Z " fill="#242522" transform="translate(109,18)"/>
<path d="M0 0 C0.66 0 1.32 0 2 0 C2 3.96 2 7.92 2 12 C10.58 12 19.16 12 28 12 C28 27.51 28 43.02 28 59 C27.01 59.33 26.02 59.66 25 60 C24.35685797 46.98663687 23.8759042 34.03005898 24 21 C17.07 20.67 10.14 20.34 3 20 C3 19.34 3 18.68 3 18 C2.17097168 18.24447876 2.17097168 18.24447876 1.32519531 18.49389648 C-1.25473034 19.05544477 -3.56355224 19.1130026 -6.203125 19.09765625 C-7.08645508 19.09515869 -7.96978516 19.09266113 -8.87988281 19.09008789 C-9.99202148 19.08098389 -11.10416016 19.07187988 -12.25 19.0625 C-15.7975 19.041875 -19.345 19.02125 -23 19 C-23.33 32.2 -23.66 45.4 -24 59 C-24.33 59 -24.66 59 -25 59 C-25 43.49 -25 27.98 -25 12 C-16.75 12 -8.5 12 0 12 C0 8.04 0 4.08 0 0 Z " fill="#5D5644" transform="translate(63,16)"/>
<path d="M0 0 C0.33 0 0.66 0 1 0 C2.4685141 19.45969456 2.4685141 19.45969456 -0.79296875 25.1015625 C-3.11373768 27.11522801 -5.29487996 28.55230579 -8 30 C-8.88623047 30.6801416 -9.77246094 31.3602832 -10.68554688 32.06103516 C-14.66045966 34.38637085 -17.01141155 34.46381742 -21.5859375 34.390625 C-22.28772125 34.38496521 -22.989505 34.37930542 -23.71255493 34.37347412 C-25.93409087 34.35124483 -28.15395923 34.30108056 -30.375 34.25 C-31.88929947 34.22991731 -33.40362446 34.21166964 -34.91796875 34.1953125 C-38.61251268 34.15142633 -42.30609333 34.08249577 -46 34 C-45.67 32.68 -45.34 31.36 -45 30 C-44.443125 30.37125 -43.88625 30.7425 -43.3125 31.125 C-41.04298319 32.22534044 -41.04298319 32.22534044 -38.75 31.5 C-34.13095638 28.98052166 -30.07273141 25.69144618 -26.00390625 22.37109375 C-24 21 -24 21 -22.02734375 20.578125 C-19.07352832 19.73580384 -17.66607637 17.95201062 -15.5625 15.75 C-14.386875 14.53183594 -14.386875 14.53183594 -13.1875 13.2890625 C-12.465625 12.53367187 -11.74375 11.77828125 -11 11 C-10.02418241 10.0382567 -9.04582835 9.07906263 -8.0625 8.125 C-5.85524631 5.97945156 -5.85524631 5.97945156 -4 3 C-3.01 2.67 -2.02 2.34 -1 2 C-0.67 1.34 -0.34 0.68 0 0 Z " fill="#CCCCCC" transform="translate(108,94)"/>
<path d="M0 0 C0 0.66 0 1.32 0 2 C1.09699219 1.98839844 2.19398437 1.97679687 3.32421875 1.96484375 C4.77864412 1.95546036 6.23307135 1.94636075 7.6875 1.9375 C8.40873047 1.92912109 9.12996094 1.92074219 9.87304688 1.91210938 C13.71555382 1.89456368 17.26639526 2.06475779 21 3 C21.36622936 7.44707075 21.62323303 11.88954451 21.8359375 16.34570312 C22.01452674 19.23502193 22.30735028 22.10385474 22.59375 24.984375 C23.7650887 40.2440168 23.7650887 40.2440168 20.60400391 45.1796875 C17.15943527 48.83971964 13.17055281 51.47526818 8.81103516 53.93164062 C6.74643187 55.09155869 6.74643187 55.09155869 4.13671875 57.296875 C2 59 2 59 0 59 C0.33 66.92 0.66 74.84 1 83 C0.34 83 -0.32 83 -1 83 C-1 75.74 -1 68.48 -1 61 C-1.66 61 -2.32 61 -3 61 C-3 68.26 -3 75.52 -3 83 C-3.66 82.67 -4.32 82.34 -5 82 C-4.67 74.41 -4.34 66.82 -4 59 C-5.32 58.34 -6.64 57.68 -8 57 C-9.20221964 56.12872287 -10.37919493 55.22175916 -11.53125 54.28515625 C-12.17707031 53.76373047 -12.82289062 53.24230469 -13.48828125 52.70507812 C-14.15214844 52.16302734 -14.81601562 51.62097656 -15.5 51.0625 C-16.82250243 49.99037424 -18.14540746 48.91874487 -19.46875 47.84765625 C-20.05076172 47.37336182 -20.63277344 46.89906738 -21.23242188 46.41040039 C-22.98850568 44.91722177 -22.98850568 44.91722177 -25.1940918 43.85327148 C-27.60697605 41.37710488 -27.46576813 39.29738654 -27.47883606 35.94335938 C-27.46132797 35.13705078 -27.44381989 34.33074219 -27.42578125 33.5 C-27.42249313 32.66791016 -27.41920502 31.83582031 -27.41581726 30.97851562 C-27.40539735 29.2199725 -27.38544883 27.46146381 -27.35668945 25.703125 C-27.31266715 23.01022468 -27.29526156 20.31821539 -27.28320312 17.625 C-27.26977657 15.9166538 -27.25485292 14.20831858 -27.23828125 12.5 C-27.23089432 11.69369141 -27.22350739 10.88738281 -27.21589661 10.05664062 C-27.16015143 6.79547102 -27.03807815 4.11423446 -26 1 C-22.41673516 0.83183879 -18.83337798 0.66573123 -15.25 0.5 C-14.23421875 0.45230469 -13.2184375 0.40460937 -12.171875 0.35546875 C-11.1921875 0.31035156 -10.2125 0.26523437 -9.203125 0.21875 C-8.30239258 0.17685547 -7.40166016 0.13496094 -6.47363281 0.09179688 C-4.31702276 0.01176476 -2.15809454 0 0 0 Z M-3 3 C-3 3.66 -3 4.32 -3 5 C-4.09699219 4.86980469 -5.19398437 4.73960938 -6.32421875 4.60546875 C-7.7785096 4.46473093 -9.23294551 4.32548646 -10.6875 4.1875 C-11.40873047 4.09791016 -12.12996094 4.00832031 -12.87304688 3.91601562 C-17.03655278 3.55479822 -18.68195289 3.75107568 -22.01953125 6.36328125 C-24.20018948 8.71691494 -24.20018948 8.71691494 -24 11 C-23.34 11 -22.68 11 -22 11 C-22.33 12.65 -22.66 14.3 -23 16 C-22.34 16 -21.68 16 -21 16 C-21.495 17.175625 -21.99 18.35125 -22.5 19.5625 C-24.7124499 26.13693643 -24.63283247 33.14568464 -24 40 C-21.41030732 43.88453902 -19.12356704 44.86458135 -15 47 C-14.34 47 -13.68 47 -13 47 C-12.67 47.99 -12.34 48.98 -12 50 C-10.08493433 51.24618778 -10.08493433 51.24618778 -7.75 52.1875 C-6.98171875 52.53167969 -6.2134375 52.87585938 -5.421875 53.23046875 C-1.51365079 54.47227547 0.9452505 54.46827241 4.71875 52.79296875 C5.6365625 52.26316406 6.554375 51.73335937 7.5 51.1875 C8.4178125 50.66542969 9.335625 50.14335938 10.28125 49.60546875 C11.1784375 49.07566406 12.075625 48.54585937 13 48 C13.8765625 47.56300781 14.753125 47.12601563 15.65625 46.67578125 C18.79567408 44.43109303 19.70282545 42.63461572 21 39 C21.36122807 36.00686418 21.33039934 33.07290699 21.25 30.0625 C21.23904297 29.23580811 21.22808594 28.40911621 21.21679688 27.55737305 C21.08358582 20.02008897 20.62874405 12.51124592 20 5 C14.44211308 3.84980286 9.6183744 4.30887842 4.0234375 4.94140625 C0.9511636 5.00094644 -0.4521346 4.63436244 -3 3 Z " fill="#B3B3B2" transform="translate(66,34)"/>
<path d="M0 0 C1.47375488 1.09176636 1.47375488 1.09176636 3 3 C3.39440918 5.91970825 3.39440918 5.91970825 3.41992188 9.53173828 C3.42839142 10.19071609 3.43686096 10.84969391 3.44558716 11.52864075 C3.46900086 13.70939411 3.46997774 15.88944285 3.46875 18.0703125 C3.47585341 19.59146404 3.48355267 21.1126129 3.49182129 22.63375854 C3.50527926 25.82655264 3.50683104 29.01909952 3.50097656 32.21191406 C3.49510532 36.28402273 3.52555667 40.35492882 3.56609344 44.4268055 C3.5920852 47.57205484 3.59483709 50.71701999 3.59120178 53.86236191 C3.59288504 55.36214066 3.60245056 56.86193367 3.62034607 58.3616066 C3.711715 66.97164899 3.39280064 73.90802845 -2 81 C-2.99 81 -3.98 81 -5 81 C-5.226875 81.556875 -5.45375 82.11375 -5.6875 82.6875 C-12.88065924 95.36116152 -30.28281036 104.86849785 -43 111 C-43.33 110.34 -43.66 109.68 -44 109 C-45.3921875 109.309375 -45.3921875 109.309375 -46.8125 109.625 C-50 110 -50 110 -53 108 C-53 107.34 -53 106.68 -53 106 C-54.65 105.34 -56.3 104.68 -58 104 C-58 103.34 -58 102.68 -58 102 C-59.32 101.67 -60.64 101.34 -62 101 C-62 100.34 -62 99.68 -62 99 C-62.9075 98.7525 -63.815 98.505 -64.75 98.25 C-68.18743257 96.92791055 -69.52234992 95.63749847 -72 93 C-72.9075 92.46375 -73.815 91.9275 -74.75 91.375 C-75.4925 90.92125 -76.235 90.4675 -77 90 C-77 89.34 -77 88.68 -77 88 C-78.65 87.34 -80.3 86.68 -82 86 C-82 85.34 -82 84.68 -82 84 C-84.31 83.34 -86.62 82.68 -89 82 C-89.33 79.69 -89.66 77.38 -90 75 C-86.23699497 76.25433501 -84.80830576 78.19169424 -82 81 C-77.82827981 84.45245809 -74.04725287 87.01574458 -69 89 C-67.61829701 89.80886643 -66.26372959 90.66557016 -64.9375 91.5625 C-64.16277344 92.08199219 -63.38804688 92.60148437 -62.58984375 93.13671875 C-60.7027985 94.49436669 -58.86731933 95.92454494 -57.06640625 97.39453125 C-55.54853516 98.62236328 -55.54853516 98.62236328 -54 99.875 C-53.071875 100.65617187 -52.14375 101.43734375 -51.1875 102.2421875 C-46.96551288 104.57048922 -43.71735218 105.03958916 -39 104 C-36.11068942 102.4657955 -33.84057935 100.45295182 -31.4375 98.25 C-30.05720289 97.05568046 -28.67431226 95.86435282 -27.2890625 94.67578125 C-26.5868457 94.06557129 -25.88462891 93.45536133 -25.16113281 92.82666016 C-21.66387439 89.87066292 -17.99639599 87.15478477 -14.3125 84.4375 C-6.69183914 79.546292 -6.69183914 79.546292 -1 73 C-0.34 73 0.32 73 1 73 C1.02322252 64.51556717 1.04096548 56.03114774 1.05181217 47.54669094 C1.05701937 43.60655528 1.06407755 39.66644146 1.07543945 35.72631836 C1.08634544 31.92026112 1.09229312 28.11422482 1.09487724 24.30815315 C1.09671763 22.85977919 1.10031137 21.4114063 1.10573006 19.96304131 C1.11304298 17.92642664 1.11398665 15.88989727 1.11352539 13.85327148 C1.115746 12.69633286 1.11796661 11.53939423 1.12025452 10.34739685 C0.99419061 6.83829021 0.55600421 3.46489263 0 0 Z " fill="#969696" transform="translate(109,16)"/>
<path d="M0 0 C0.99 0.33 1.98 0.66 3 1 C3.69885649 9.34883908 4.13896207 17.68485169 4.25 26.0625 C4.2819043 27.25709839 4.2819043 27.25709839 4.31445312 28.47583008 C4.34346809 33.37676931 3.85169526 36.82784584 1 41 C-1.35546875 42.671875 -1.35546875 42.671875 -4 44 C-4.86238281 44.54140625 -5.72476563 45.0828125 -6.61328125 45.640625 C-14.803168 50.52374127 -14.803168 50.52374127 -19.25 50.125 C-23.38646604 48.88406019 -26.38545693 47.3343924 -30 45 C-30 44.34 -30 43.68 -30 43 C-30.721875 42.731875 -31.44375 42.46375 -32.1875 42.1875 C-39.43661972 39.12676056 -39.43661972 39.12676056 -41 36 C-41.1509482 33.54709172 -41.23128564 31.14141991 -41.25 28.6875 C-41.27578125 27.37136719 -41.3015625 26.05523437 -41.328125 24.69921875 C-40.99044348 20.89226164 -40.23489942 19.04063948 -38 16 C-37.34 16.33 -36.68 16.66 -36 17 C-35.92572162 20.34252724 -35.93453047 22.8035914 -37 26 C-36.83396318 28.88409777 -36.83396318 28.88409777 -36.3125 32 C-36.16425781 33.051875 -36.01601563 34.10375 -35.86328125 35.1875 C-34.84193166 38.51497376 -33.99781853 39.32506224 -31 41 C-28.74955142 41.94204824 -26.49921512 42.64406792 -24.1640625 43.34765625 C-22 44 -22 44 -19.4375 45.0625 C-14.24906966 44.92946332 -10.38877077 40.44208251 -6.96484375 36.88671875 C-2.44895857 31.81446168 -0.89386131 29.36972877 -0.68359375 22.4609375 C-0.62075195 20.50800781 -0.62075195 20.50800781 -0.55664062 18.515625 C-0.51682701 17.13541955 -0.47711478 15.75521117 -0.4375 14.375 C-0.39430593 12.98696585 -0.35069135 11.59894472 -0.30664062 10.2109375 C-0.20028 6.80739744 -0.09825286 3.40378222 0 0 Z " fill="#CBCBCA" transform="translate(83,38)"/>
<path d="M0 0 C0.66 0 1.32 0 2 0 C3.10802759 3.56799769 3.12052267 6.88194176 3.11352539 10.60449219 C3.11367142 11.25856552 3.11381744 11.91263885 3.1139679 12.58653259 C3.11327341 14.74001426 3.10550283 16.89340852 3.09765625 19.046875 C3.09579042 20.54331414 3.09436729 22.03975388 3.09336853 23.53619385 C3.08955635 27.46858415 3.07973717 31.40093732 3.06866455 35.33331299 C3.05842249 39.34850563 3.05386492 43.3637043 3.04882812 47.37890625 C3.03811372 55.25262117 3.02105291 63.12630596 3 71 C2.67 71 2.34 71 2 71 C2 73.31 2 75.62 2 78 C-0.64241233 76.16180012 -1.00377624 74.97926759 -1.5871582 71.77636719 C-2.27315012 65.4000146 -2.16447376 58.98341699 -2.16796875 52.578125 C-2.17118738 51.18666551 -2.1745519 49.79520636 -2.17805481 48.40374756 C-2.1840115 45.50239272 -2.18589799 42.60106754 -2.18530273 39.69970703 C-2.18520062 35.9852494 -2.19891829 32.27098081 -2.21607494 28.55656815 C-2.22719147 25.68952561 -2.22922215 22.82252911 -2.22869301 19.95546722 C-2.22987112 18.58555187 -2.23428344 17.21563525 -2.24202538 15.84574127 C-2.25182951 13.93396982 -2.24768186 12.02214223 -2.24291992 10.11035156 C-2.24434494 9.02417542 -2.24576996 7.93799927 -2.24723816 6.81890869 C-2.00201352 4.02295729 -1.44574971 2.37543705 0 0 Z " fill="#97907E" transform="translate(17,13)"/>
<path d="M0 0 C0.66 0 1.32 0 2 0 C5.66646629 4.99972675 7.11475685 8.4566272 7.19287109 14.60131836 C7.20893402 15.74938461 7.22499695 16.89745087 7.24154663 18.08030701 C7.2859576 23.31580797 7.32747419 28.55122276 7.35009766 33.78686523 C7.36345467 36.55249986 7.39134303 39.3173997 7.43212891 42.08276367 C7.49084466 46.06427083 7.5087448 50.04541839 7.5234375 54.02734375 C7.54610687 55.26596664 7.56877625 56.50458954 7.59213257 57.78074646 C7.58928253 58.93196487 7.5864325 60.08318329 7.58349609 61.26928711 C7.59158295 62.28171982 7.5996698 63.29415253 7.60800171 64.33726501 C6.78352204 67.94806221 5.00842791 68.99502115 2 71 C2.00444122 70.19899872 2.00888245 69.39799744 2.01345825 68.57272339 C2.05359338 61.0105013 2.08401404 53.44833114 2.10362434 45.8860302 C2.11404523 41.99851804 2.12817333 38.11109417 2.15087891 34.22363281 C2.17266794 30.46944439 2.18458137 26.7153407 2.18975449 22.9610939 C2.19343939 21.53142082 2.20063505 20.10175218 2.21146011 18.67211533 C2.22605481 16.66410627 2.2268176 14.6560113 2.22705078 12.64794922 C2.231492 11.50655487 2.23593323 10.36516052 2.24050903 9.18917847 C1.9877562 5.83764579 1.19394316 3.13016909 0 0 Z " fill="#D7D7D7" transform="translate(111,14)"/>
<path d="M0 0 C0 0.66 0 1.32 0 2 C1.09699219 1.98839844 2.19398437 1.97679687 3.32421875 1.96484375 C4.77864412 1.95546036 6.23307135 1.94636075 7.6875 1.9375 C8.40873047 1.92912109 9.12996094 1.92074219 9.87304688 1.91210938 C13.71555382 1.89456368 17.26639526 2.06475779 21 3 C22.09848966 16.33880305 22.10890351 29.62329823 22 43 C20.68 43.66 19.36 44.32 18 45 C18.32597168 44.1754834 18.65194336 43.3509668 18.98779297 42.50146484 C20.12150721 38.57967766 20.25380469 35.01526295 20.1953125 30.9765625 C20.19106766 29.85729874 20.19106766 29.85729874 20.18673706 28.71542358 C20.17561687 26.35178012 20.15052821 23.98852732 20.125 21.625 C20.11495962 20.01432842 20.10583562 18.40365085 20.09765625 16.79296875 C20.0757044 12.86183056 20.04123185 8.93098133 20 5 C12.1746671 4.92909518 12.1746671 4.92909518 4.375 5.5 C3.53710938 5.5928125 2.69921875 5.685625 1.8359375 5.78125 C1.23007813 5.8534375 0.62421875 5.925625 0 6 C-0.33 5.34 -0.66 4.68 -1 4 C-8.59 4 -16.18 4 -24 4 C-24.33 16.54 -24.66 29.08 -25 42 C-25.66 42 -26.32 42 -27 42 C-27.02470696 36.64315122 -27.04286331 31.28633556 -27.05493164 25.92944336 C-27.0599624 24.10684634 -27.06678769 22.28425335 -27.07543945 20.46166992 C-27.08755997 17.84292606 -27.09324086 15.22423553 -27.09765625 12.60546875 C-27.10281754 11.78974899 -27.10797882 10.97402924 -27.11329651 10.1335907 C-27.1136246 6.82986071 -27.05225621 4.15676862 -26 1 C-22.41673516 0.83183879 -18.83337798 0.66573123 -15.25 0.5 C-14.23421875 0.45230469 -13.2184375 0.40460937 -12.171875 0.35546875 C-11.1921875 0.31035156 -10.2125 0.26523437 -9.203125 0.21875 C-8.30239258 0.17685547 -7.40166016 0.13496094 -6.47363281 0.09179688 C-4.31702276 0.01176476 -2.15809454 0 0 0 Z " fill="#888888" transform="translate(66,34)"/>
<path d="M0 0 C1.47375488 1.08879089 1.47375488 1.08879089 3 3 C3.39440918 5.93989563 3.39440918 5.93989563 3.41992188 9.5793457 C3.42839142 10.2431424 3.43686096 10.90693909 3.44558716 11.59085083 C3.46899143 13.78602247 3.46997833 15.98049425 3.46875 18.17578125 C3.47585138 19.70411967 3.48355035 21.23245542 3.49182129 22.76078796 C3.50527523 25.96617028 3.50683169 29.17130631 3.50097656 32.37670898 C3.49509026 36.47601189 3.52562153 40.57412639 3.56609344 44.67319965 C3.5920041 47.83119526 3.59484468 50.98890639 3.59120178 54.14699364 C3.59289102 55.65762497 3.60251482 57.16826973 3.62034607 58.67879677 C3.75996956 71.97333127 3.75996956 71.97333127 0.64038086 75.82421875 C-0.23094482 76.54222656 -1.10227051 77.26023437 -2 78 C-2.93714844 78.78761719 -3.87429687 79.57523437 -4.83984375 80.38671875 C-6.37318359 81.52560547 -6.37318359 81.52560547 -7.9375 82.6875 C-9.09050601 83.55250336 -10.2428258 84.41842202 -11.39453125 85.28515625 C-11.9870166 85.72875488 -12.57950195 86.17235352 -13.18994141 86.62939453 C-15.6054257 88.45843808 -17.97986125 90.33663277 -20.35253906 92.22070312 C-22.11146237 93.61427432 -23.88072352 94.99371583 -25.65234375 96.37109375 C-27.78891031 98.03435867 -29.86693729 99.72877995 -31.94140625 101.47265625 C-37.43415821 105.90279901 -41.44922586 108.17506342 -48.640625 107.5859375 C-52.25245167 106.68896068 -53.68414245 104.86435013 -56 102 C-59.78610107 98.80766017 -63.64062421 95.780918 -67.9375 93.3125 C-70.29695875 91.81102625 -71.01989553 90.5839118 -72 88 C-66.66662463 90.60820769 -61.74889354 93.5818496 -57.12890625 97.328125 C-56.11699219 98.14796875 -55.10507812 98.9678125 -54.0625 99.8125 C-52.65677734 100.99779297 -52.65677734 100.99779297 -51.22265625 102.20703125 C-46.98195404 104.56640375 -43.74719334 105.05179794 -39 104 C-36.11090887 102.4653614 -33.84060059 100.45297129 -31.4375 98.25 C-30.05720289 97.05568046 -28.67431226 95.86435282 -27.2890625 94.67578125 C-26.5868457 94.06557129 -25.88462891 93.45536133 -25.16113281 92.82666016 C-21.66387439 89.87066292 -17.99639599 87.15478477 -14.3125 84.4375 C-6.69183914 79.546292 -6.69183914 79.546292 -1 73 C-0.34 73 0.32 73 1 73 C1.02322252 64.51556717 1.04096548 56.03114774 1.05181217 47.54669094 C1.05701937 43.60655528 1.06407755 39.66644146 1.07543945 35.72631836 C1.08634544 31.92026112 1.09229312 28.11422482 1.09487724 24.30815315 C1.09671763 22.85977919 1.10031137 21.4114063 1.10573006 19.96304131 C1.11304298 17.92642664 1.11398665 15.88989727 1.11352539 13.85327148 C1.115746 12.69633286 1.11796661 11.53939423 1.12025452 10.34739685 C0.99419061 6.83829021 0.55600421 3.46489263 0 0 Z " fill="#737372" transform="translate(109,16)"/>
<path d="M0 0 C0.53625 0.268125 1.0725 0.53625 1.625 0.8125 C0.861875 1.01875 0.09875 1.225 -0.6875 1.4375 C-4.29403308 3.28270297 -4.85506028 5.10246509 -6.375 8.8125 C-6.81577001 11.88621245 -6.81577001 11.88621245 -6.74731445 15.11816406 C-6.75354324 16.34674133 -6.75977203 17.5753186 -6.76618958 18.84112549 C-6.75697983 20.15683533 -6.74777008 21.47254517 -6.73828125 22.828125 C-6.7377617 24.20806884 -6.73828307 25.58801343 -6.73979187 26.96795654 C-6.73970238 29.85619199 -6.72932519 32.74414702 -6.71118164 35.63232422 C-6.68858066 39.30817652 -6.68793741 42.98361666 -6.69469929 46.6595192 C-6.69806612 49.50967984 -6.69135718 52.35974907 -6.68157005 55.20989227 C-6.67592113 57.21594994 -6.67714486 59.22202324 -6.67854309 61.22808838 C-6.62935868 67.63250704 -6.29949873 73.60414108 -4.80192566 79.84344482 C-4.375 81.8125 -4.375 81.8125 -4.375 84.8125 C-5.035 84.4825 -5.695 84.1525 -6.375 83.8125 C-7.0193525 80.98450849 -7.39826331 78.15131851 -7.8125 75.28125 C-7.998125 74.4665625 -8.18375 73.651875 -8.375 72.8125 C-9.035 72.4825 -9.695 72.1525 -10.375 71.8125 C-11.43391564 65.27386962 -11.44883957 58.91327166 -11.25390625 52.30859375 C-11.23029526 51.3447023 -11.20668427 50.38081085 -11.18235779 49.38771057 C-11.1064442 46.34162949 -11.02211366 43.29585055 -10.9375 40.25 C-10.88420672 38.17123821 -10.83146697 36.09246215 -10.77929688 34.01367188 C-10.65092829 28.94642719 -10.51501621 23.87943568 -10.375 18.8125 C-11.035 18.8125 -11.695 18.8125 -12.375 18.8125 C-11.625 12.0625 -11.625 12.0625 -9.375 9.8125 C-9.2925 9.049375 -9.21 8.28625 -9.125 7.5 C-7.95645896 3.31272793 -4.68012413 -0.36948348 0 0 Z " fill="#D0D0CF" transform="translate(22.375,8.1875)"/>
<path d="M0 0 C0.33 0 0.66 0 1 0 C1.86111089 3.7220515 2.12646529 7.16329466 2.12939453 10.98022461 C2.13254669 12.16172592 2.13569885 13.34322723 2.13894653 14.56053162 C2.1369223 15.82832962 2.13489807 17.09612762 2.1328125 18.40234375 C2.13376923 19.71280167 2.13472595 21.02325958 2.13571167 22.37342834 C2.13718298 25.14308861 2.13505266 27.91271655 2.13037109 30.68237305 C2.12467973 34.22067057 2.12795264 37.75889213 2.13394356 41.29718685 C2.13844072 44.68641179 2.13528507 48.07561666 2.1328125 51.46484375 C2.13483673 52.73061752 2.13686096 53.9963913 2.13894653 55.30052185 C2.13421829 57.07750206 2.13421829 57.07750206 2.12939453 58.89038086 C2.12859894 59.92786972 2.12780334 60.96535858 2.12698364 62.0342865 C1.99597801 65.09393393 1.56502879 67.99270009 1 71 C0.34 71 -0.32 71 -1 71 C-1.21140625 71.56589844 -1.4228125 72.13179688 -1.640625 72.71484375 C-3.4941121 75.83061948 -5.83916807 77.40777441 -8.75 79.5625 C-9.92771999 80.44446298 -11.10478043 81.32730724 -12.28125 82.2109375 C-13.19777344 82.89494629 -13.19777344 82.89494629 -14.1328125 83.59277344 C-17.20868744 85.91094069 -20.22732807 88.30065853 -23.25 90.6875 C-23.83531494 91.14616455 -24.42062988 91.6048291 -25.02368164 92.07739258 C-27.63126957 94.12129705 -30.21861997 96.17987719 -32.77734375 98.28515625 C-33.57269531 98.93355469 -34.36804688 99.58195312 -35.1875 100.25 C-35.86167969 100.81203125 -36.53585938 101.3740625 -37.23046875 101.953125 C-37.81441406 102.29859375 -38.39835937 102.6440625 -39 103 C-39.99 102.67 -40.98 102.34 -42 102 C-41.29617187 101.47792969 -40.59234375 100.95585938 -39.8671875 100.41796875 C-33.61302376 95.75592241 -27.42738079 91.02089892 -21.31323242 86.17651367 C-18.32083898 83.80893763 -15.31221743 81.47081247 -12.2578125 79.18359375 C-11.65831787 78.73234131 -11.05882324 78.28108887 -10.44116211 77.81616211 C-9.29797165 76.95817245 -8.15052047 76.10582179 -6.99829102 75.26000977 C-4.29396801 73.22398912 -3.09820041 72.29460123 -2 69 C-2.99 68.505 -2.99 68.505 -4 68 C-3.01 67.34 -2.02 66.68 -1 66 C-0.52089939 63.13251684 -0.52089939 63.13251684 -0.56762695 59.71435547 C-0.5574353 59.07032776 -0.54724365 58.42630005 -0.53674316 57.76275635 C-0.50651239 55.63081275 -0.49733249 53.49931764 -0.48828125 51.3671875 C-0.47144191 49.89029434 -0.45329268 48.41341558 -0.43388367 46.93655396 C-0.38629601 43.04694111 -0.35654375 39.15738661 -0.33044434 35.26757812 C-0.30068271 31.29936189 -0.25413743 27.33134692 -0.20898438 23.36328125 C-0.12285173 15.5756205 -0.05555121 7.78794528 0 0 Z " fill="#525251" transform="translate(109,18)"/>
<path d="M0 0 C-0.22267415 3.30939854 -1.15484253 4.13987971 -3.66796875 6.41015625 C-4.83349175 7.30433699 -6.00727184 8.18782032 -7.1875 9.0625 C-8.46901658 10.03871264 -9.75025889 11.01528543 -11.03125 11.9921875 C-11.68996094 12.48944336 -12.34867188 12.98669922 -13.02734375 13.49902344 C-15.5230376 15.39797465 -17.97875295 17.3444252 -20.43383789 19.29541016 C-38.95770125 34 -38.95770125 34 -42 34 C-41.69321522 30.946097 -40.96441271 29.96502628 -38.734375 27.7734375 C-37.74953125 26.98195313 -36.7646875 26.19046875 -35.75 25.375 C-35.2149585 24.941875 -34.67991699 24.50875 -34.12866211 24.0625 C-32.42929213 22.69490119 -30.71759163 21.34462609 -29 20 C-28.46197754 19.57879883 -27.92395508 19.15759766 -27.36962891 18.72363281 C-24.70133978 16.64404464 -22.01898462 14.58420454 -19.32421875 12.5390625 C-16.99290654 10.76818192 -14.6877084 8.96841937 -12.39453125 7.1484375 C-11.80534912 6.684375 -11.21616699 6.2203125 -10.60913086 5.7421875 C-9.47662449 4.8493203 -8.34831527 3.95109632 -7.22485352 3.046875 C-3.33701644 0 -3.33701644 0 0 0 Z " fill="#120F08" transform="translate(107,87)"/>
<path d="M0 0 C0.70125 0.66 1.4025 1.32 2.125 2 C1.795 2.66 1.465 3.32 1.125 4 C-0.03427002 3.67468292 -1.19354004 3.34936584 -2.38793945 3.01419067 C-6.53210596 1.98294494 -10.38494002 1.75847953 -14.66796875 1.77294922 C-15.40065475 1.77265717 -16.13334076 1.77236511 -16.88822937 1.77206421 C-19.27977874 1.77344359 -21.67100591 1.78893812 -24.0625 1.8046875 C-25.7325829 1.8084226 -27.40266802 1.81126722 -29.07275391 1.81326294 C-33.44572106 1.82086031 -37.81855312 1.84047489 -42.19146729 1.8626709 C-46.66278252 1.88321371 -51.13411982 1.89228262 -55.60546875 1.90234375 C-64.36204082 1.92372483 -73.11850355 1.95781316 -81.875 2 C-76.44637453 -1.61908364 -70.81754937 -1.15433846 -64.5 -1.125 C-63.2625 -1.13080078 -63.2625 -1.13080078 -62 -1.13671875 C-58.36797062 -1.13095362 -54.93837577 -1.00909365 -51.3359375 -0.4921875 C-43.72171981 0.59064707 -36.29291403 -0.17113723 -28.6875 -1 C-5.13717796 -3.34569096 -5.13717796 -3.34569096 0 0 Z " fill="#D8D8D8" transform="translate(105.875,6)"/>
<path d="M0 0 C0.99 0.33 1.98 0.66 3 1 C3.69885649 9.34883908 4.13896207 17.68485169 4.25 26.0625 C4.27126953 26.85889893 4.29253906 27.65529785 4.31445312 28.47583008 C4.34361077 33.40086876 3.72620226 36.73091108 1 41 C-2.38535246 43.56188835 -5.95669162 44.77760444 -10 46 C-9.04270084 44.87411986 -8.08412105 43.7493285 -7.125 42.625 C-6.59132813 41.99851563 -6.05765625 41.37203125 -5.5078125 40.7265625 C-4.38567993 39.44163349 -3.20628025 38.20628025 -2 37 C-0.29236816 32.13223771 0.23942958 27.89354556 0.1953125 22.75390625 C0.1924826 22.09792953 0.18965271 21.44195282 0.18673706 20.76609802 C0.17565984 18.69803591 0.15058063 16.63042827 0.125 14.5625 C0.11495402 13.14909485 0.10583102 11.73568283 0.09765625 10.32226562 C0.07576184 6.88136606 0.04132051 3.44072748 0 0 Z " fill="#B8B8B8" transform="translate(83,38)"/>
<path d="M0 0 C0.75410156 0.00322266 1.50820313 0.00644531 2.28515625 0.00976562 C3.06246094 0.01814453 3.83976562 0.02652344 4.640625 0.03515625 C5.43339844 0.03966797 6.22617187 0.04417969 7.04296875 0.04882812 C8.99222008 0.0605706 10.94143238 0.07850479 12.890625 0.09765625 C12.890625 0.75765625 12.890625 1.41765625 12.890625 2.09765625 C11.79363281 2.02804688 10.69664063 1.9584375 9.56640625 1.88671875 C8.11204062 1.83042073 6.65760848 1.77582275 5.203125 1.72265625 C4.48189453 1.67238281 3.76066406 1.62210938 3.01757812 1.5703125 C-1.19421077 1.43164669 -1.19421077 1.43164669 -4.74462891 3.45996094 C-6.31073969 5.27881335 -6.31073969 5.27881335 -8.109375 8.09765625 C-7.449375 8.09765625 -6.789375 8.09765625 -6.109375 8.09765625 C-5.8847465 9.49096006 -5.6804505 10.88754834 -5.484375 12.28515625 C-5.36835937 13.06246094 -5.25234375 13.83976562 -5.1328125 14.640625 C-5.109375 17.09765625 -5.109375 17.09765625 -6.07421875 19.41796875 C-7.44428501 22.96463085 -7.33770457 25.9954294 -7.296875 29.78515625 C-7.2959082 30.79932617 -7.2959082 30.79932617 -7.29492188 31.83398438 C-7.3033548 35.59186582 -7.3033548 35.59186582 -6.109375 39.09765625 C-5.490625 39.36578125 -4.871875 39.63390625 -4.234375 39.91015625 C-0.90728962 41.76940984 0.23371583 44.78383791 1.890625 48.09765625 C1.31820068 47.80866455 0.74577637 47.51967285 0.15600586 47.22192383 C-2.06341764 46.08524405 -2.06341764 46.08524405 -4.24780273 45.22924805 C-6.96274624 43.78670828 -8.35569741 42.65417232 -10.109375 40.09765625 C-11.01691548 33.9918865 -10.58291695 28.04723269 -10.171875 21.91015625 C-10.09203632 20.22868572 -10.01582697 18.5470387 -9.94335938 16.86523438 C-9.37633269 4.89852931 -9.37633269 4.89852931 -8.109375 1.09765625 C-5.41165718 0.07962888 -2.8613733 -0.02167707 0 0 Z " fill="#B2B2B2" transform="translate(50.109375,36.90234375)"/>
<path d="M0 0 C3.74628159 1.24876053 5.22965349 3.2015892 8 6 C11.07222493 8.37417125 14.20855828 10.64021597 17.35546875 12.9140625 C20 15 20 15 22 18 C23.69482055 18.97778109 25.39224981 19.95194015 27.11328125 20.8828125 C30.03270537 22.61149842 32.45401046 24.76449699 35 27 C34.01 27.495 34.01 27.495 33 28 C30.375 27.0625 30.375 27.0625 28 26 C28 25.34 28 24.68 28 24 C27.0925 23.7525 26.185 23.505 25.25 23.25 C21.81256743 21.92791055 20.47765008 20.63749847 18 18 C17.0925 17.46375 16.185 16.9275 15.25 16.375 C14.5075 15.92125 13.765 15.4675 13 15 C13 14.34 13 13.68 13 13 C10.525 12.01 10.525 12.01 8 11 C8 10.34 8 9.68 8 9 C5.69 8.34 3.38 7.68 1 7 C0.67 4.69 0.34 2.38 0 0 Z " fill="#8A8A89" transform="translate(19,91)"/>
<path d="M0 0 C4.42879419 0.82362567 8.90854076 0.59882548 13.39453125 0.4453125 C13.06453125 1.1053125 12.73453125 1.7653125 12.39453125 2.4453125 C9.64080636 3.3632208 7.98386614 3.58024024 5.14453125 3.5703125 C4.4175 3.57289063 3.69046875 3.57546875 2.94140625 3.578125 C0.39453125 3.4453125 0.39453125 3.4453125 -2.8203125 2.94921875 C-7.21548773 2.36410254 -11.48988929 2.25427746 -15.91796875 2.2578125 C-17.17057495 2.2568457 -17.17057495 2.2568457 -18.44848633 2.25585938 C-24.39919395 2.30682407 -29.82940111 2.93027836 -35.60546875 4.4453125 C-27.27917603 -4.70079981 -10.87708675 -2.63125437 0 0 Z " fill="#E5E5E5" transform="translate(57.60546875,3.5546875)"/>
<path d="M0 0 C7.92 0 15.84 0 24 0 C24 1.98 24 3.96 24 6 C23.67 5.34 23.34 4.68 23 4 C15.41 4 7.82 4 0 4 C0 2.68 0 1.36 0 0 Z " fill="#070809" transform="translate(66,29)"/>
<path d="M0 0 C7.92 0 15.84 0 24 0 C24 1.32 24 2.64 24 4 C16.08 4 8.16 4 0 4 C0 2.68 0 1.36 0 0 Z " fill="#060707" transform="translate(38,29)"/>
<path d="M0 0 C0.33 0 0.66 0 1 0 C1.00808685 0.80988373 1.01617371 1.61976746 1.02450562 2.45419312 C1.1023604 10.07667731 1.18962295 17.69896755 1.28752708 25.32121849 C1.33753002 29.24015113 1.38385943 33.15905629 1.421875 37.078125 C1.4586777 40.85836233 1.50502343 44.63837191 1.55806351 48.41841507 C1.57663427 49.86250448 1.59173228 51.30664276 1.60334396 52.7508049 C1.62015992 54.76935063 1.65033105 56.78777188 1.68115234 58.80615234 C1.70113785 60.53156754 1.70113785 60.53156754 1.7215271 62.2918396 C1.72737638 65.14808928 1.72737638 65.14808928 4 67 C4 69 4 71 4 73 C3.01 72.67 2.02 72.34 1 72 C-0.44957456 69.10085089 -0.11932924 66.585717 -0.11352539 63.34716797 C-0.11367142 62.66412598 -0.11381744 61.98108398 -0.1139679 61.27734375 C-0.11327023 59.0155929 -0.10548465 56.753924 -0.09765625 54.4921875 C-0.09579155 52.92562912 -0.09436789 51.35907016 -0.09336853 49.79251099 C-0.08954743 45.66610102 -0.0797206 41.53972616 -0.06866455 37.41333008 C-0.0584417 33.20394363 -0.05386903 28.99455153 -0.04882812 24.78515625 C-0.03809798 16.52342138 -0.02102642 8.26171505 0 0 Z " fill="#484A4D" transform="translate(18,19)"/>
<path d="M0 0 C-0.05446345 3.03179856 -0.31846955 5.22927922 -2.37304688 7.55273438 C-4.28001684 9.19841784 -6.2385385 10.73374895 -8.25 12.25 C-8.97002197 12.81283691 -9.69004395 13.37567383 -10.43188477 13.95556641 C-12.60975425 15.65258883 -14.80331651 17.32743925 -17 19 C-18.21325802 19.93878944 -19.4255739 20.87879839 -20.63671875 21.8203125 C-22.77611235 23.4803154 -24.92490452 25.12444616 -27.08203125 26.76171875 C-28.97662412 28.21500083 -30.85069947 29.69557916 -32.69921875 31.20703125 C-33.49972656 31.86058594 -34.30023438 32.51414063 -35.125 33.1875 C-35.80820313 33.75855469 -36.49140625 34.32960937 -37.1953125 34.91796875 C-38.08863281 35.45357422 -38.08863281 35.45357422 -39 36 C-39.99 35.67 -40.98 35.34 -42 35 C-40.94425781 34.21689453 -40.94425781 34.21689453 -39.8671875 33.41796875 C-33.61302376 28.75592241 -27.42738079 24.02089892 -21.31323242 19.17651367 C-18.32083898 16.80893763 -15.31221743 14.47081247 -12.2578125 12.18359375 C-11.65831787 11.73234131 -11.05882324 11.28108887 -10.44116211 10.81616211 C-9.29797165 9.95817245 -8.15052047 9.10582179 -6.99829102 8.26000977 C-4.29396801 6.22398912 -3.09820041 5.29460123 -2 2 C-2.66 1.67 -3.32 1.34 -4 1 C-2 0 -2 0 0 0 Z " fill="#363636" transform="translate(109,85)"/>
<path d="M0 0 C2.66666667 1.33333333 5.33333333 2.66666667 8 4 C8 4.66 8 5.32 8 6 C10.64 6.33 13.28 6.66 16 7 C15.01 7.495 15.01 7.495 14 8 C14.33 15.92 14.66 23.84 15 32 C14.34 32 13.68 32 13 32 C13 24.74 13 17.48 13 10 C12.34 10 11.68 10 11 10 C11 17.26 11 24.52 11 32 C10.34 31.67 9.68 31.34 9 31 C9.33 23.41 9.66 15.82 10 8 C8.68 7.34 7.36 6.68 6 6 C3.8793181 4.43867227 1.97591454 2.7513788 0 1 C0 0.67 0 0.34 0 0 Z " fill="#A68850" transform="translate(52,85)"/>
<path d="M0 0 C-0.763125 0.20625 -1.52625 0.4125 -2.3125 0.625 C-5.9863877 2.50466347 -6.5974515 4.14299162 -8 8 C-9.18215058 16.14748387 -9.32460324 24.34486604 -9.5625 32.5625 C-9.60579176 33.96680703 -9.64940904 35.37110406 -9.69335938 36.77539062 C-9.79876511 40.18350951 -9.90088982 43.5916932 -10 47 C-10.33 47 -10.66 47 -11 47 C-11.17345152 41.12857064 -11.30025826 35.25864168 -11.38452148 29.38525391 C-11.41965609 27.38889582 -11.46737596 25.39271701 -11.52807617 23.39697266 C-11.61330797 20.52201097 -11.65275654 17.64943493 -11.68359375 14.7734375 C-11.71972275 13.88570648 -11.75585175 12.99797546 -11.79307556 12.08334351 C-11.79535679 8.45723132 -11.73819916 5.99553732 -9.53567505 3.02520752 C-6.2176917 -0.05713383 -4.49992972 -1.64244503 0 0 Z " fill="#D0D0D0" transform="translate(24,9)"/>
<path d="M0 0 C9.34115243 4.56859857 17.60397365 10.9270315 26 17 C24.20263672 17.62182617 24.20263672 17.62182617 22 18 C19.54381396 16.52332912 17.38204737 15.04961183 15.125 13.3125 C13.91990162 12.41191573 12.71417799 11.51216747 11.5078125 10.61328125 C10.92370605 10.17161621 10.33959961 9.72995117 9.73779297 9.27490234 C8.07373379 8.05409355 6.37605466 6.92471117 4.640625 5.80859375 C2.00407402 4.00279035 1.05760293 2.9612882 0 0 Z " fill="#434343" transform="translate(37,104)"/>
<path d="M0 0 C0 3 0 3 -1.4609375 4.71875 C-2.09257813 5.3065625 -2.72421875 5.894375 -3.375 6.5 C-5.65041801 8.63496011 -7.24747563 10.37121344 -9 13 C-11.74918473 15.11475749 -13.27512115 14.99097963 -16.8125 14.875 C-21.20536458 14.20741645 -24.29365565 12.39368073 -28 10 C-26 9 -26 9 -24.125 9.5234375 C-23.42375 9.80445312 -22.7225 10.08546875 -22 10.375 C-21.29875 10.65085937 -20.5975 10.92671875 -19.875 11.2109375 C-18.56369761 11.76277726 -17.27249081 12.3637546 -16 13 C-15.51789063 12.6390625 -15.03578125 12.278125 -14.5390625 11.90625 C-13.90742187 11.4421875 -13.27578125 10.978125 -12.625 10.5 C-11.99851562 10.0359375 -11.37203125 9.571875 -10.7265625 9.09375 C-9 8 -9 8 -7 8 C-6.67 7.01 -6.34 6.02 -6 5 C-4.12382302 3.15500602 -2.07262391 1.6316401 0 0 Z " fill="#C3C3C2" transform="translate(81,73)"/>
<path d="M0 0 C0.66 0 1.32 0 2 0 C2.495 8.415 2.495 8.415 3 17 C2.67 16.34 2.34 15.68 2 15 C1.34 15 0.68 15 0 15 C-0.33 15.66 -0.66 16.32 -1 17 C-1 15.68 -1 14.36 -1 13 C-8.92 13 -16.84 13 -25 13 C-25 12.67 -25 12.34 -25 12 C-16.75 12 -8.5 12 0 12 C0 8.04 0 4.08 0 0 Z " fill="#4F4328" transform="translate(63,16)"/>
<path d="M0 0 C0.99 0.33 1.98 0.66 3 1 C3.95043457 12.35429868 4.11033706 23.61076383 4 35 C3.67 35 3.34 35 3 35 C2.92652344 33.49373047 2.92652344 33.49373047 2.8515625 31.95703125 C2.43690419 24.16375338 1.77192213 16.56481784 0.40234375 8.8671875 C-0.01751321 5.87519712 -0.06715008 3.01727712 0 0 Z " fill="#AEAEAD" transform="translate(83,38)"/>
<path d="M0 0 C0.66 0 1.32 0 2 0 C2.19670554 3.77041256 2.38078426 7.54133763 2.5625 11.3125 C2.61857422 12.38435547 2.67464844 13.45621094 2.73242188 14.56054688 C2.78076172 15.58857422 2.82910156 16.61660156 2.87890625 17.67578125 C2.9260376 18.62364502 2.97316895 19.57150879 3.02172852 20.5480957 C3 23 3 23 2 26 C1.34 26 0.68 26 0 26 C-0.96541545 22.81445408 -1.05239684 20.11247293 -0.87890625 16.796875 C-0.83056641 15.8171875 -0.78222656 14.8375 -0.73242188 13.828125 C-0.67634766 12.81234375 -0.62027344 11.7965625 -0.5625 10.75 C-0.51029297 9.71875 -0.45808594 8.6875 -0.40429688 7.625 C-0.27484366 5.08300961 -0.13988672 2.54143407 0 0 Z " fill="#393939" transform="translate(63,95)"/>
<path d="M0 0 C0.33 0.66 0.66 1.32 1 2 C0.01 3.485 0.01 3.485 -1 5 C-1.99 5 -2.98 5 -4 5 C-4.2475 5.598125 -4.495 6.19625 -4.75 6.8125 C-6.19192497 9.33586869 -7.52549626 10.50030076 -10 12 C-10.99 12 -11.98 12 -13 12 C-13.66 13.32 -14.32 14.64 -15 16 C-16.32 15.67 -17.64 15.34 -19 15 C-16.39759636 12.87283345 -13.79277604 10.74864719 -11.1875 8.625 C-10.44951172 8.02171875 -9.71152344 7.4184375 -8.95117188 6.796875 C-8.23896484 6.21679688 -7.52675781 5.63671875 -6.79296875 5.0390625 C-6.1383667 4.50490723 -5.48376465 3.97075195 -4.80932617 3.42041016 C-3.26198226 2.20566898 -1.63680796 1.09120531 0 0 Z " fill="#888888" transform="translate(108,92)"/>
<path d="M0 0 C0.66 0.33 1.32 0.66 2 1 C1.67 1.825 1.34 2.65 1 3.5 C-0.87206363 10.05222269 0.05194027 16.36358191 1 23 C0.01 22.67 -0.98 22.34 -2 22 C-3.49357569 19.01284862 -3.22503435 15.96112064 -3.25 12.6875 C-3.27578125 11.37136719 -3.3015625 10.05523437 -3.328125 8.69921875 C-2.99044348 4.89226164 -2.23489942 3.04063948 0 0 Z " fill="#C6C6C5" transform="translate(45,54)"/>
<path d="M0 0 C0.33 0 0.66 0 1 0 C0.97223003 6.1232776 0.06869173 9.92258085 -4.25 14.35546875 C-4.8275 14.89816406 -5.405 15.44085938 -6 16 C-6.598125 16.59425781 -7.19625 17.18851563 -7.8125 17.80078125 C-11.21147194 20.98731745 -11.21147194 20.98731745 -13 22 C-15.2109375 21.65625 -15.2109375 21.65625 -17 21 C-16.50371094 20.6596875 -16.00742188 20.319375 -15.49609375 19.96875 C-8.05538282 14.66000747 -1.73929284 9.2762285 0 0 Z " fill="#D7D7D6" transform="translate(83,62)"/>
<path d="M0 0 C0.99 0.33 1.98 0.66 3 1 C1.25084555 2.43852875 -0.49935795 3.87578198 -2.25 5.3125 C-3.22453125 6.11300781 -4.1990625 6.91351563 -5.203125 7.73828125 C-6.12609375 8.48464844 -7.0490625 9.23101562 -8 10 C-8.680625 10.598125 -9.36125 11.19625 -10.0625 11.8125 C-12.56339627 13.34530739 -13.88955162 13.15021959 -16.75 12.6875 C-17.54921875 12.56761719 -18.3484375 12.44773437 -19.171875 12.32421875 C-19.77515625 12.21722656 -20.3784375 12.11023438 -21 12 C-21 11.67 -21 11.34 -21 11 C-20.33613281 10.91363281 -19.67226563 10.82726562 -18.98828125 10.73828125 C-13.00491735 9.78618393 -10.04856846 8.74260877 -6 4 C-4.36021682 2.95650161 -2.69905634 1.94392019 -1 1 C-0.67 0.67 -0.34 0.34 0 0 Z " fill="#A6A39B" transform="translate(81,79)"/>
<path d="M0 0 C0.33 1.32 0.66 2.64 1 4 C-2.63 6.97 -6.26 9.94 -10 13 C-10.66 12.67 -11.32 12.34 -12 12 C-10.09728819 9.35734471 -8.07487971 6.82093666 -6 4.3125 C-5.505 3.71050781 -5.01 3.10851562 -4.5 2.48828125 C-3 1 -3 1 0 0 Z " fill="#A8A8A8" transform="translate(107,96)"/>
<path d="M0 0 C0.33 0 0.66 0 1 0 C2.97873542 7.54392881 4.94799131 15.86051847 1.5 23.1875 C0.7575 24.0846875 0.7575 24.0846875 0 25 C-1.40949509 22.18100982 -0.64518744 19.89771828 -0.2578125 16.86328125 C0.2469299 11.25758162 0.07198882 5.62312647 0 0 Z " fill="#C5C5C4" transform="translate(83,48)"/>
<path d="M0 0 C0.33 0 0.66 0 1 0 C1.2475 1.11375 1.495 2.2275 1.75 3.375 C2.56905939 7.03210362 2.56905939 7.03210362 4.9375 8.125 C5.9584375 8.558125 5.9584375 8.558125 7 9 C8.53487153 11.27388375 9.77533442 13.55066883 11 16 C7.96147295 14.59023295 5.4060405 12.91129772 2.75 10.875 C2.04359375 10.33617188 1.3371875 9.79734375 0.609375 9.2421875 C0.07828125 8.83226563 -0.4528125 8.42234375 -1 8 C-0.67 5.36 -0.34 2.72 0 0 Z " fill="#A2A096" transform="translate(41,69)"/>
<path d="M0 0 C0.66 0.33 1.32 0.66 2 1 C0.23669281 2.5088401 -1.53590397 4.0068298 -3.3125 5.5 C-4.29863281 6.3353125 -5.28476563 7.170625 -6.30078125 8.03125 C-9 10 -9 10 -12 10 C-12 9.34 -12 8.68 -12 8 C-8.53846154 5 -8.53846154 5 -6 5 C-5.67 3.68 -5.34 2.36 -5 1 C-4.01 1 -3.02 1 -2 1 C-1.34 0.67 -0.68 0.34 0 0 Z " fill="#EBB424" transform="translate(99,89)"/>
<path d="M0 0 C0.33 0 0.66 0 1 0 C1 7.92 1 15.84 1 24 C-0.98 24.99 -0.98 24.99 -3 26 C-2.52433594 24.83597656 -2.52433594 24.83597656 -2.0390625 23.6484375 C-0.70105666 18.95032677 -0.54144863 14.48668711 -0.375 9.625 C-0.33632812 8.69816406 -0.29765625 7.77132812 -0.2578125 6.81640625 C-0.16412409 4.5444623 -0.07840652 2.27251404 0 0 Z " fill="#94928F" transform="translate(87,53)"/>
<path d="M0 0 C0.99 0 1.98 0 3 0 C2.82701599 2.33528415 2.29774631 3.69177582 0.66796875 5.37890625 C-3.57211538 9 -3.57211538 9 -6 9 C-4.4705003 5.55862568 -2.54630448 2.7777867 0 0 Z " fill="#0A0908" transform="translate(104,87)"/>
<path d="M0 0 C0.70726112 2.20036792 1.1132503 3.58238952 0.5 5.84375 C-0.07736637 8.33364249 0.1031803 10.22402891 0.4375 12.75 C0.53933594 13.54921875 0.64117187 14.3484375 0.74609375 15.171875 C0.82988281 15.77515625 0.91367187 16.3784375 1 17 C0.67 15.68 0.34 14.36 0 13 C-0.66 13 -1.32 13 -2 13 C-2.05416188 11.39620659 -2.09286638 9.79188594 -2.125 8.1875 C-2.14820313 7.29417969 -2.17140625 6.40085937 -2.1953125 5.48046875 C-2 3 -2 3 0 0 Z " fill="#D4D4D4" transform="translate(46,56)"/>
<path d="M0 0 C3.03852705 1.40976705 5.5939595 3.08870228 8.25 5.125 C8.95640625 5.66382812 9.6628125 6.20265625 10.390625 6.7578125 C10.92171875 7.16773437 11.4528125 7.57765625 12 8 C11.01 8.495 11.01 8.495 10 9 C7.375 8.0625 7.375 8.0625 5 7 C5 6.34 5 5.68 5 5 C4.01 4.67 3.02 4.34 2 4 C0.8125 1.9375 0.8125 1.9375 0 0 Z " fill="#868686" transform="translate(42,110)"/>
<path d="M0 0 C0.66 0 1.32 0 2 0 C1.85691406 0.84820312 1.71382812 1.69640625 1.56640625 2.5703125 C0.99968273 6.00192112 0.4637299 9.43696464 -0.0625 12.875 C-0.23910156 14.02742188 -0.41570313 15.17984375 -0.59765625 16.3671875 C-0.73042969 17.23601562 -0.86320312 18.10484375 -1 19 C-1.33 19 -1.66 19 -2 19 C-2.0991667 12.90675749 -2.17328971 6.99681407 -1 1 C-0.67 0.67 -0.34 0.34 0 0 Z " fill="#B3B3B2" transform="translate(43,50)"/>
<path d="M0 0 C0.58265625 0.22558594 1.1653125 0.45117188 1.765625 0.68359375 C1.0025 0.88984375 0.239375 1.09609375 -0.546875 1.30859375 C-4.06418127 3.10814579 -4.65613365 5.15133931 -6.234375 8.68359375 C-7.224375 9.17859375 -7.224375 9.17859375 -8.234375 9.68359375 C-8.564375 8.36359375 -8.894375 7.04359375 -9.234375 5.68359375 C-8.16544282 4.64769037 -7.07859012 3.63025433 -5.984375 2.62109375 C-5.38109375 2.05261719 -4.7778125 1.48414063 -4.15625 0.8984375 C-2.234375 -0.31640625 -2.234375 -0.31640625 0 0 Z " fill="#D9D9D8" transform="translate(22.234375,8.31640625)"/>
<path d="M0 0 C0.33 1.32 0.66 2.64 1 4 C1.66 4 2.32 4 3 4 C2.7834375 4.99 2.7834375 4.99 2.5625 6 C1.87700084 9.65599551 1.43824485 13.30622195 1 17 C0.67 17 0.34 17 0 17 C0 11.39 0 5.78 0 0 Z " fill="#A2A2A1" transform="translate(41,41)"/>
<path d="M0 0 C3.99996286 1.33332095 4.83782337 3.4957827 7 7 C6.67 7.66 6.34 8.32 6 9 C3.525 8.01 3.525 8.01 1 7 C0.67 4.69 0.34 2.38 0 0 Z " fill="#929292" transform="translate(19,91)"/>
<path d="M0 0 C0 2.625 0 2.625 -1 6 C-3.46582388 8.31464229 -6.15854494 10.1747373 -9 12 C-7.45171854 8.61877547 -5.97413266 7.20661455 -3 5 C-2.67 4.01 -2.34 3.02 -2 2 C-2.66 1.67 -3.32 1.34 -4 1 C-2 0 -2 0 0 0 Z " fill="#2E2D2A" transform="translate(109,85)"/>
<path d="M0 0 C2.99220268 1.36370299 5.29026529 2.94908083 7.75 5.125 C8.67039062 5.93324219 8.67039062 5.93324219 9.609375 6.7578125 C10.06828125 7.16773437 10.5271875 7.57765625 11 8 C6.92453987 8 5.19463638 6.44695552 2 4 C0.625 1.75 0.625 1.75 0 0 Z " fill="#585858" transform="translate(37,104)"/>
<path d="M0 0 C0.33 0 0.66 0 1 0 C1 2.97 1 5.94 1 9 C0.01 8.67 -0.98 8.34 -2 8 C-1.125 1.125 -1.125 1.125 0 0 Z " fill="#E0E0E0" transform="translate(12,19)"/>
<path d="M0 0 C0.99 0.33 1.98 0.66 3 1 C0.69 3.31 -1.62 5.62 -4 8 C-4.66 7.34 -5.32 6.68 -6 6 C-5.195625 5.38125 -4.39125 4.7625 -3.5625 4.125 C-0.96125481 2.25835959 -0.96125481 2.25835959 0 0 Z " fill="#A9A9A8" transform="translate(95,104)"/>
<path d="M0 0 C-1.49097658 3.7952131 -3.75700849 5.61042731 -7 8 C-7.66 7.67 -8.32 7.34 -9 7 C-7.88121617 5.82737096 -6.75476949 4.66204862 -5.625 3.5 C-4.68527344 2.52546875 -4.68527344 2.52546875 -3.7265625 1.53125 C-2 0 -2 0 0 0 Z " fill="#B3B3B3" transform="translate(108,98)"/>
<path d="M0 0 C0.99 0 1.98 0 3 0 C3.33 2.64 3.66 5.28 4 8 C3.01 7.67 2.02 7.34 1 7 C0.67 4.69 0.34 2.38 0 0 Z " fill="#BCBCBB" transform="translate(42,69)"/>
<path d="M0 0 C-0.99 0 -1.98 0 -3 0 C-3 0.66 -3 1.32 -3 2 C-5.64738916 3.4606285 -6.89448334 4 -10 4 C-9 1 -9 1 -6.6875 -0.25 C-3.90126985 -1.0275526 -2.66561622 -0.98726527 0 0 Z " fill="#CDCDCD" transform="translate(28,9)"/>
<path d="M0 0 C1.98 0.66 3.96 1.32 6 2 C5.67 2.99 5.34 3.98 5 5 C2.9375 5.6875 2.9375 5.6875 1 6 C1.33 5.01 1.66 4.02 2 3 C0.68 2.67 -0.64 2.34 -2 2 C-1.34 1.34 -0.68 0.68 0 0 Z " fill="#EFBC23" transform="translate(75,102)"/>
<path d="M0 0 C0 3 0 3 -1.3125 4.60546875 C-1.869375 5.12753906 -2.42625 5.64960937 -3 6.1875 C-3.556875 6.71730469 -4.11375 7.24710937 -4.6875 7.79296875 C-5.120625 8.19128906 -5.55375 8.58960937 -6 9 C-6.99 8.67 -7.98 8.34 -9 8 C-8.34 8 -7.68 8 -7 8 C-6.67 7.01 -6.34 6.02 -6 5 C-4.12382302 3.15500602 -2.07262391 1.6316401 0 0 Z " fill="#CBCBCB" transform="translate(81,73)"/>
<path d="M0 0 C0.66 0.33 1.32 0.66 2 1 C0.95125002 3.62187494 0.35068687 4.79371361 -2.125 6.25 C-2.74375 6.4975 -3.3625 6.745 -4 7 C-2.92598892 4.08482708 -2.22189824 2.22189824 0 0 Z " fill="#CECECE" transform="translate(113,86)"/>
<path d="M0 0 C3 1 3 1 4.1875 3.1875 C5.07334979 6.25390311 5.14770318 8.82438155 5 12 C4.67 12 4.34 12 4 12 C2.66666667 8 1.33333333 4 0 0 Z " fill="#BABAB9" transform="translate(109,14)"/>
<path d="M0 0 C2.3125 0.1875 2.3125 0.1875 5 1 C6.8125 3.5625 6.8125 3.5625 8 6 C4.63408134 4.55746343 2.48952921 2.66735273 0 0 Z " fill="#454545" transform="translate(29,98)"/>
<path d="M0 0 C1.8125 0.1875 1.8125 0.1875 4 1 C5.56840126 3.26546849 6.77072645 5.5414529 8 8 C3.79373966 6.49776416 2.26099979 3.71449966 0 0 Z " fill="#ABA8A1" transform="translate(44,77)"/>
</svg>
